<svg width="25" height="25" viewBox="0 0 25 25" fill="none" xmlns="http://www.w3.org/2000/svg">
<g clip-path="url(#clip0_1690_1470)">
<path d="M24.4873 12.7247C24.4873 11.7414 24.4057 11.0239 24.229 10.2798H12.739V14.7178H19.4833C19.3474 15.8207 18.6132 17.4816 16.9814 18.5977L16.9585 18.7463L20.5915 21.4965L20.8431 21.521C23.1547 19.4349 24.4873 16.3654 24.4873 12.7247Z" fill="#4285F4"/>
<path d="M12.739 24.4173C16.0432 24.4173 18.8171 23.3543 20.8432 21.5206L16.9815 18.5973C15.9481 19.3016 14.5611 19.7932 12.739 19.7932C9.50285 19.7932 6.75616 17.7071 5.77705 14.8237L5.63353 14.8356L1.85598 17.6925L1.80658 17.8267C3.819 21.7332 7.95266 24.4173 12.739 24.4173Z" fill="#34A853"/>
<path d="M5.77702 14.8238C5.51867 14.0797 5.36916 13.2824 5.36916 12.4586C5.36916 11.6347 5.51867 10.8375 5.76343 10.0934L5.75658 9.93494L1.9317 7.03223L1.80655 7.09039C0.97714 8.71149 0.501221 10.5319 0.501221 12.4586C0.501221 14.3853 0.97714 16.2056 1.80655 17.8267L5.77702 14.8238Z" fill="#FBBC05"/>
<path d="M12.739 5.12403C15.037 5.12403 16.5871 6.09402 17.471 6.90461L20.9247 3.60928C18.8036 1.6826 16.0432 0.5 12.739 0.5C7.95266 0.5 3.819 3.18406 1.80658 7.09056L5.76345 10.0936C6.75616 7.2102 9.50285 5.12403 12.739 5.12403Z" fill="#EB4335"/>
</g>
<defs>
<clipPath id="clip0_1690_1470">
<rect width="24" height="24" fill="white" transform="translate(0.5 0.5)"/>
</clipPath>
</defs>
</svg>
