<svg width="34" height="16" viewBox="0 0 34 16" fill="none" xmlns="http://www.w3.org/2000/svg">
<path d="M13.2408 11.06L3.94646 5.69172C2.67243 4.97435 1.0583 5.42535 0.340933 6.69938C-0.365423 7.95387 0.0602621 9.54296 1.29934 10.276L10.5937 15.6423C11.8801 16.3371 13.486 15.8578 14.1808 14.5717C14.8481 13.337 14.4356 11.7963 13.2408 11.06Z" fill="#4285F4"/>
<path d="M31.7755 5.69251L22.4812 0.326466C21.1992 -0.375762 19.5908 0.0939493 18.8886 1.37596C18.2086 2.61696 18.6255 4.17331 19.8346 4.90856L29.129 10.2768C30.395 11.0077 32.0138 10.574 32.7444 9.30794C33.4752 8.04189 33.0416 6.42336 31.7755 5.69251Z" fill="#34A853"/>
<path d="M28.7611 10.9143L24.4233 8.40888L19.8346 11.0607C18.5689 11.7915 18.1349 13.4101 18.8658 14.6761C19.5966 15.9422 21.2152 16.3758 22.4812 15.645L29.9528 11.3317C29.5329 11.2682 29.1287 11.1267 28.7611 10.9143Z" fill="#F9AB00"/>
<path d="M4.31394 5.05514L8.65224 7.56055L13.2409 4.90876C14.4855 4.14186 14.8727 2.51122 14.1055 1.26663C13.3694 0.0718565 11.8285 -0.34062 10.5938 0.326386L3.12274 4.63992C3.54237 4.70265 3.94632 4.84354 4.31394 5.05514Z" fill="#EA4335"/>
</svg>
